<svg xmlns="http://www.w3.org/2000/svg" style="display: none;">
  <!-- Capybara Running Right -->
  <symbol id="capybara-right" viewBox="0 0 80 60">
    <!-- Body -->
    <ellipse cx="40" cy="35" rx="25" ry="18" fill="#D2691E" stroke="#8B4513" stroke-width="2"/>
    <ellipse cx="40" cy="35" rx="20" ry="14" fill="#DEB887"/>
    
    <!-- Head -->
    <ellipse cx="60" cy="25" rx="15" ry="12" fill="#D2691E" stroke="#8B4513" stroke-width="2"/>
    <ellipse cx="60" cy="25" rx="12" ry="9" fill="#DEB887"/>
    
    <!-- Ears -->
    <ellipse cx="55" cy="18" rx="4" ry="6" fill="#D2691E" stroke="#8B4513" stroke-width="1"/>
    <ellipse cx="65" cy="18" rx="4" ry="6" fill="#D2691E" stroke="#8B4513" stroke-width="1"/>
    <ellipse cx="55" cy="18" rx="2" ry="4" fill="#CD853F"/>
    <ellipse cx="65" cy="18" rx="2" ry="4" fill="#CD853F"/>
    
    <!-- Eyes -->
    <circle cx="57" cy="22" r="3" fill="#000"/>
    <circle cx="67" cy="22" r="3" fill="#000"/>
    <circle cx="58" cy="21" r="1" fill="#FFF"/>
    <circle cx="68" cy="21" r="1" fill="#FFF"/>
    
    <!-- Nose -->
    <ellipse cx="72" cy="27" rx="2" ry="1.5" fill="#8B4513"/>
    
    <!-- Legs Running -->
    <g class="legs-right">
      <ellipse cx="30" cy="48" rx="3" ry="8" fill="#D2691E"/>
      <ellipse cx="40" cy="50" rx="3" ry="6" fill="#D2691E"/>
      <ellipse cx="50" cy="48" rx="3" ry="8" fill="#D2691E"/>
      <ellipse cx="60" cy="50" rx="3" ry="6" fill="#D2691E"/>
    </g>
    
    <!-- Tail -->
    <circle cx="18" cy="30" r="4" fill="#D2691E" stroke="#8B4513" stroke-width="1"/>
  </symbol>

  <!-- Capybara Running Left -->
  <symbol id="capybara-left" viewBox="0 0 80 60">
    <!-- Body -->
    <ellipse cx="40" cy="35" rx="25" ry="18" fill="#D2691E" stroke="#8B4513" stroke-width="2"/>
    <ellipse cx="40" cy="35" rx="20" ry="14" fill="#DEB887"/>
    
    <!-- Head -->
    <ellipse cx="20" cy="25" rx="15" ry="12" fill="#D2691E" stroke="#8B4513" stroke-width="2"/>
    <ellipse cx="20" cy="25" rx="12" ry="9" fill="#DEB887"/>
    
    <!-- Ears -->
    <ellipse cx="15" cy="18" rx="4" ry="6" fill="#D2691E" stroke="#8B4513" stroke-width="1"/>
    <ellipse cx="25" cy="18" rx="4" ry="6" fill="#D2691E" stroke="#8B4513" stroke-width="1"/>
    <ellipse cx="15" cy="18" rx="2" ry="4" fill="#CD853F"/>
    <ellipse cx="25" cy="18" rx="2" ry="4" fill="#CD853F"/>
    
    <!-- Eyes -->
    <circle cx="13" cy="22" r="3" fill="#000"/>
    <circle cx="23" cy="22" r="3" fill="#000"/>
    <circle cx="12" cy="21" r="1" fill="#FFF"/>
    <circle cx="22" cy="21" r="1" fill="#FFF"/>
    
    <!-- Nose -->
    <ellipse cx="8" cy="27" rx="2" ry="1.5" fill="#8B4513"/>
    
    <!-- Legs Running -->
    <g class="legs-left">
      <ellipse cx="20" cy="50" rx="3" ry="6" fill="#D2691E"/>
      <ellipse cx="30" cy="48" rx="3" ry="8" fill="#D2691E"/>
      <ellipse cx="40" cy="50" rx="3" ry="6" fill="#D2691E"/>
      <ellipse cx="50" cy="48" rx="3" ry="8" fill="#D2691E"/>
    </g>
    
    <!-- Tail -->
    <circle cx="62" cy="30" r="4" fill="#D2691E" stroke="#8B4513" stroke-width="1"/>
  </symbol>
</svg>