<svg xmlns="http://www.w3.org/2000/svg" style="display: none;">
  <!-- Carrot -->
  <symbol id="carrot" viewBox="0 0 30 30">
    <path d="M15 2 L12 8 L8 12 L10 18 L15 28 L20 18 L22 12 L18 8 Z" 
          fill="#FF8C00" stroke="#E67300" stroke-width="1"/>
    <path d="M15 2 L13 6 L11 10 L12 16 L15 24 L18 16 L19 10 L17 6 Z" 
          fill="#FFA500"/>
    <!-- Carrot leaves -->
    <path d="M15 2 Q12 0 10 2 Q13 1 15 2" fill="#228B22"/>
    <path d="M15 2 Q18 0 20 2 Q17 1 15 2" fill="#228B22"/>
    <path d="M15 2 Q14 -1 16 1 Q15 0 15 2" fill="#32CD32"/>
  </symbol>

  <!-- Broccoli -->
  <symbol id="broccoli" viewBox="0 0 30 30">
    <!-- Stem -->
    <rect x="13" y="20" width="4" height="8" fill="#90EE90" rx="2"/>
    <!-- Florets -->
    <circle cx="15" cy="12" r="6" fill="#228B22"/>
    <circle cx="11" cy="10" r="4" fill="#32CD32"/>
    <circle cx="19" cy="10" r="4" fill="#32CD32"/>
    <circle cx="9" cy="15" r="3" fill="#228B22"/>
    <circle cx="21" cy="15" r="3" fill="#228B22"/>
    <circle cx="15" cy="8" r="3" fill="#006400"/>
    <circle cx="12" cy="16" r="2.5" fill="#32CD32"/>
    <circle cx="18" cy="16" r="2.5" fill="#32CD32"/>
    <!-- Small details -->
    <circle cx="15" cy="12" r="2" fill="#006400"/>
    <circle cx="13" cy="9" r="1.5" fill="#228B22"/>
    <circle cx="17" cy="9" r="1.5" fill="#228B22"/>
  </symbol>

  <!-- Lettuce -->
  <symbol id="lettuce" viewBox="0 0 30 30">
    <!-- Outer leaves -->
    <path d="M15 5 Q8 8 6 15 Q8 22 15 25 Q22 22 24 15 Q22 8 15 5 Z" 
          fill="#90EE90" stroke="#7CCD7C" stroke-width="1"/>
    <!-- Inner leaves -->
    <path d="M15 8 Q10 10 9 15 Q10 20 15 22 Q20 20 21 15 Q20 10 15 8 Z" 
          fill="#98FB98"/>
    <!-- Leaf veins -->
    <path d="M15 8 L15 22" stroke="#7CCD7C" stroke-width="0.5"/>
    <path d="M12 10 Q15 12 12 18" stroke="#7CCD7C" stroke-width="0.5" fill="none"/>
    <path d="M18 10 Q15 12 18 18" stroke="#7CCD7C" stroke-width="0.5" fill="none"/>
    <!-- Core -->
    <ellipse cx="15" cy="15" rx="3" ry="4" fill="#ADFF2F"/>
  </symbol>

  <!-- Tomato -->
  <symbol id="tomato" viewBox="0 0 30 30">
    <!-- Main body -->
    <circle cx="15" cy="16" r="10" fill="#FF6347"/>
    <!-- Highlight -->
    <ellipse cx="12" cy="13" rx="3" ry="4" fill="#FF7F50" opacity="0.7"/>
    <!-- Stem area -->
    <ellipse cx="15" cy="8" rx="4" ry="2" fill="#228B22"/>
    <!-- Stem -->
    <rect x="14" y="6" width="2" height="3" fill="#32CD32"/>
    <!-- Sepals -->
    <path d="M11 8 Q10 6 12 7 Q13 8 11 8" fill="#228B22"/>
    <path d="M19 8 Q20 6 18 7 Q17 8 19 8" fill="#228B22"/>
    <path d="M15 7 Q14 5 16 6 Q15 7 15 7" fill="#228B22"/>
    <path d="M13 8 Q12 6 14 7 Q13 8 13 8" fill="#228B22"/>
    <path d="M17 8 Q18 6 16 7 Q17 8 17 8" fill="#228B22"/>
  </symbol>

  <!-- Pepper -->
  <symbol id="pepper" viewBox="0 0 30 30">
    <!-- Main body -->
    <path d="M15 6 Q10 8 8 15 Q9 22 12 26 Q15 28 18 26 Q21 22 22 15 Q20 8 15 6 Z" 
          fill="#FF0000"/>
    <!-- Highlight -->
    <path d="M15 8 Q12 10 11 15 Q12 20 14 24 Q15 25 16 24 Q18 20 19 15 Q18 10 15 8 Z" 
          fill="#FF4500" opacity="0.6"/>
    <!-- Stem -->
    <ellipse cx="15" cy="6" rx="2" ry="1.5" fill="#228B22"/>
    <rect x="14.5" y="4" width="1" height="3" fill="#32CD32"/>
    <!-- Curve detail -->
    <path d="M15 6 Q18 8 20 12 Q19 16 17 20" stroke="#DC143C" stroke-width="1" fill="none"/>
  </symbol>
</svg>